<svg width="480" height="220" viewBox="0 0 480 220" xmlns="http://www.w3.org/2000/svg">
<rect width="480" height="220" rx="10" fill="#0d1117" stroke="#2d3348" stroke-width="1"/>
<text x="30" y="38" fill="#A78BFA" font-family="Fira Code, monospace" font-size="17" font-weight="bold">Most Used Languages</text>
<line x1="30" y1="50" x2="450" y2="50" stroke="#2d3348" stroke-width="1"/>
<rect x="30" y="70" width="420" height="14" rx="7" fill="#1c2130"/>
<rect x="30.0" y="70" width="281.4" height="14" fill="#f1e05a"/><rect x="311.4" y="70" width="66.3" height="14" fill="#563d7c"/><rect x="377.8" y="70" width="58.4" height="14" fill="#e34c26"/><rect x="436.1" y="70" width="11.9" height="14" fill="#3178c6"/><rect x="448.0" y="70" width="2.0" height="14" fill="#3572A5"/>
<circle cx="35.0" cy="108" r="5" fill="#f1e05a"/><text x="48.0" y="112" font-family="Fira Code, monospace" font-size="13" fill="#e6e6f0">JavaScript <tspan fill="#8b8fa3">67.01%</tspan></text><circle cx="245.0" cy="108" r="5" fill="#563d7c"/><text x="258.0" y="112" font-family="Fira Code, monospace" font-size="13" fill="#e6e6f0">CSS <tspan fill="#8b8fa3">15.80%</tspan></text><circle cx="35.0" cy="134" r="5" fill="#e34c26"/><text x="48.0" y="138" font-family="Fira Code, monospace" font-size="13" fill="#e6e6f0">HTML <tspan fill="#8b8fa3">13.89%</tspan></text><circle cx="245.0" cy="134" r="5" fill="#3178c6"/><text x="258.0" y="138" font-family="Fira Code, monospace" font-size="13" fill="#e6e6f0">TypeScript <tspan fill="#8b8fa3">2.83%</tspan></text><circle cx="35.0" cy="160" r="5" fill="#3572A5"/><text x="48.0" y="164" font-family="Fira Code, monospace" font-size="13" fill="#e6e6f0">Python <tspan fill="#8b8fa3">0.47%</tspan></text>
</svg>